. 
  
http://www.torrentday.com   -    Your Key To The Scene.

Now TvTeam with [No-RAR] Releases.

(((((((((((((= Enjoy No RAR releases =))))))))))))))))))))

...................................NFO:....................................

.      *********** ****    ****      ***      ******** *********** ****    *** **********
           *+*     +*+*+* *+*+*+   *+* *+*   *+*    *+*    *+*     *+*+*   *+* *+*        
           +*+     +*+ +*+*+ +*+  +*+   +*+  +*+           +*+     *+*+*+  +*+ +*+        
           +$+     +$+  +*+  +$+ +$++*++$++* *$*           +$+     +$+ +*+ +$+ +$++*++$  
           +$+     +$+       +$+ +$+     +$+ +$+   +$+$    +$+     +$+  +$+$+$ +$+        
           $+$     $+$       $+$ $+$     $+$ $+$    $+$    $+$     $+$   $+$+$ $+$        
       $$$$$$$$$$$ $$$       $$$ $$$     $$$  $$$$$$$$ $$$$$$$$$$$ $$$    $$$$ $$$$$$$$$$     
                                                



                           Another Fine Release Brought to you from - IMAGiNE                   
                                                 http://imaginegroup.me/

********************************************************************************************************************                                
                                         The Losers TS XViD - IMAGiNE
********************************************************************************************************************

Ripper ...........: IMAGiNE                                        IMDB Rating.......:6.9/10                             
Video Codec.......: XVID                                         Release Date......:04/05/10
Audio Codec.......:MP3                                           Theatre Date......:23/04/10
Audio Bitrate.....:128                                              Runtime.......:1h 32mn
Subtitles.........:ENG when needed                      Language..........:ENGLISH
Resolution...... 704 x 288                                      IMDb URL..........:http://www.imdb.com/title/tt0480255/


[color=yellow]DETAILS:[/color]

Video
ID                               : 0
Format                           : MPEG-4 Visual
Format profile                   : Advanced Simple@L5
Format settings, BVOP            : Yes
Format settings, QPel            : No
Format settings, GMC             : No warppoints
Format settings, Matrix          : Default (MPEG)
Muxing mode                      : Packed bitstream
Codec ID                         : XVID
Codec ID/Hint                    : XviD
Duration                         : 1h 32mn
Bit rate                         : 1 910 Kbps
Width                            : 704 pixels
Height                           : 288 pixels
Display aspect ratio             : 2.444
Frame rate                       : 23.976 fps
Resolution                       : 24 bits
Colorimetry                      : 4:2:0
Scan type                        : Progressive
Bits/(Pixel*Frame)               : 0.393
Stream size                      : 1.23 GiB (93%)
Writing library                  : XviD 1.2.1 (UTC 2008-12-04)

Audio
ID                               : 1
Format                           : MPEG Audio
Format version                   : Version 1
Format profile                   : Layer 3
Codec ID                         : 55
Codec ID/Hint                    : MP3
Duration                         : 1h 31mn
Bit rate mode                    : Constant
Bit rate                         : 128 Kbps
Channel(s)                       : 2 channels
Sampling rate                    : 44.1 KHz
Resolution                       : 16 bits
Video delay                      : 9ms
Stream size                      : 84.1 MiB (6%)
Alignment                        : Split accross interleaves
Interleave, duration             : 42 ms (1.00 video frame)
Interleave, preload duration     : 500 ms


[color=yellow]NOTES:[/color]

IMAGiNE bringing you another release.....The losers
Right sources used.....audio ours,video ours,missing footage the losers cam dvdr diamond (thanks).
First off just to let you know there was 52 secs missing around the 29min mark so we had to do some cutting and pasting
from the other cam video to fill in the blank ;-)
Video is a little dark but anymore brighter made some scenes have alot of glares so .....also colour changes throughout,sometimes
looks bang on other times too much yellow or blue,but we have tried to correct this the best we could.
Audio just need to be synced to this .....bit of stretching and cutting and we got pretty close in the end so .

Anyway Enjoy.......and next freddy 

[color=yellow]GREETS:[/color]

FLAWL3SS,ViSiON,FUSiON,Rx,SecretMyth,BirdFlu,ELEKTRI4KA
And to all the other p2p grps past and present 

Special thanks to Python-Lair for the server :)
And special thanks to supreme-speeds.com for the ripbox :)

[COLOR=RED]Looking for these,syncers,cammers,silver supplier.....Have anything to offer????......
Contact us imaginegroup@hushmail.com[/COLOR]